G04 EAGLE Gerber X2 export*
%TF.Part,Single*%
%TF.FileFunction,Other,Top Layer*%
%TF.FilePolarity,Positive*%
%TF.GenerationSoftware,Autodesk,EAGLE,8.7.1*%
%TF.CreationDate,2018-04-17T03:08:04Z*%
G75*
%MOMM*%
%FSLAX34Y34*%
%LPD*%
%AMOC8*
5,1,8,0,0,1.08239X$1,22.5*%
G01*
%ADD10C,0.000000*%
%ADD11C,1.879600*%
%ADD12P,1.429621X8X22.500000*%
%ADD13P,1.429621X8X292.500000*%
%ADD14C,1.320800*%
%ADD15P,1.429621X8X112.500000*%
%ADD16C,1.308000*%
%ADD17C,2.850000*%
%ADD18P,1.429621X8X110.700000*%
%ADD19P,1.429621X8X202.500000*%
%ADD20C,1.320800*%
%ADD21C,1.508000*%
%ADD22C,0.152400*%
%ADD23C,0.654800*%


D10*
X0Y0D02*
X500000Y0D01*
X500000Y500000D01*
X0Y500000D01*
X0Y0D01*
D11*
X12700Y165100D03*
X12700Y190500D03*
X12700Y215900D03*
X12700Y241300D03*
X12700Y266700D03*
X12700Y292100D03*
X12700Y317500D03*
X12700Y342900D03*
X488950Y165100D03*
X488950Y190500D03*
X488950Y215900D03*
X488950Y241300D03*
X488950Y266700D03*
X488950Y292100D03*
X488950Y317500D03*
X488950Y342900D03*
D12*
X98200Y235900D03*
X123600Y235900D03*
D13*
X286770Y46690D03*
X286770Y21290D03*
X378870Y44650D03*
X378870Y19250D03*
D14*
X407400Y245100D03*
D15*
X407400Y295900D03*
D14*
X228400Y75000D03*
D13*
X228400Y24200D03*
D16*
X410560Y90370D03*
X410560Y106370D03*
X410560Y122370D03*
X422560Y98370D03*
X422560Y114370D03*
D17*
X461560Y142870D03*
X461560Y69870D03*
D13*
X32100Y46500D03*
X32100Y21100D03*
D18*
X29701Y82446D03*
X30499Y107834D03*
D13*
X66400Y119820D03*
X66400Y18220D03*
D19*
X134870Y138780D03*
X33270Y138780D03*
D12*
X258700Y449900D03*
X360300Y449900D03*
D13*
X101150Y119790D03*
X101150Y18190D03*
D20*
X267796Y408600D02*
X281004Y408600D01*
X281004Y383200D02*
X267796Y383200D01*
X267796Y357800D02*
X281004Y357800D01*
X281004Y332400D02*
X267796Y332400D01*
X267796Y307000D02*
X281004Y307000D01*
X281004Y281600D02*
X267796Y281600D01*
X267796Y256200D02*
X281004Y256200D01*
X281004Y230800D02*
X267796Y230800D01*
X267796Y205400D02*
X281004Y205400D01*
X281004Y180000D02*
X267796Y180000D01*
X267796Y154600D02*
X281004Y154600D01*
X281004Y129200D02*
X267796Y129200D01*
X267796Y103800D02*
X281004Y103800D01*
X281004Y78400D02*
X267796Y78400D01*
X343996Y78400D02*
X357204Y78400D01*
X357204Y103800D02*
X343996Y103800D01*
X343996Y129200D02*
X357204Y129200D01*
X357204Y154600D02*
X343996Y154600D01*
X343996Y180000D02*
X357204Y180000D01*
X357204Y205400D02*
X343996Y205400D01*
X343996Y230800D02*
X357204Y230800D01*
X357204Y256200D02*
X343996Y256200D01*
X343996Y281600D02*
X357204Y281600D01*
X357204Y307000D02*
X343996Y307000D01*
X343996Y332400D02*
X357204Y332400D01*
X357204Y357800D02*
X343996Y357800D01*
X343996Y383200D02*
X357204Y383200D01*
X357204Y408600D02*
X343996Y408600D01*
D21*
X486620Y24000D03*
X406620Y24000D03*
D16*
X466620Y24000D03*
X446620Y24000D03*
X426620Y24000D03*
D19*
X321400Y39100D03*
X334100Y20050D03*
X346800Y39100D03*
D11*
X65200Y462900D03*
X116000Y462900D03*
X186800Y31000D03*
X136000Y31000D03*
X14080Y473990D03*
X14080Y448590D03*
X14080Y423190D03*
X14080Y397790D03*
X14080Y372390D03*
X236450Y216870D03*
X236450Y191470D03*
X236450Y166070D03*
D22*
X410560Y90370D02*
X413100Y62600D01*
X446620Y24000D01*
X411050Y44650D02*
X378870Y44650D01*
X354270Y20050D01*
X334100Y20050D01*
X378870Y50130D02*
X350600Y78400D01*
X378870Y50130D02*
X378870Y44650D01*
D23*
X411050Y44650D03*
D22*
X440690Y54610D02*
X439420Y163830D01*
X469900Y190500D01*
X488950Y190500D01*
D23*
X440690Y54610D03*
D22*
X350600Y440200D02*
X360300Y449900D01*
X350600Y440200D02*
X350600Y408600D01*
X330200Y388200D01*
X330200Y292100D01*
X340100Y292100D01*
X350600Y281600D01*
X289894Y220894D01*
X274400Y110024D02*
X274400Y103800D01*
X274400Y110024D02*
X289894Y125518D01*
X289894Y220894D01*
X228400Y75000D02*
X228400Y50600D01*
X190500Y12700D01*
X106640Y12700D02*
X101150Y18190D01*
X106640Y12700D02*
X190500Y12700D01*
X286770Y46690D02*
X316350Y44150D01*
X321400Y39100D01*
X277780Y50600D02*
X228400Y50600D01*
X277780Y50600D02*
X286770Y46690D01*
X257200Y103800D02*
X228400Y75000D01*
X257200Y103800D02*
X274400Y103800D01*
X47400Y350500D02*
X14080Y372390D01*
X47400Y350500D02*
X98200Y235900D01*
X72840Y46500D02*
X32100Y46500D01*
X72840Y46500D02*
X101150Y18190D01*
X32100Y46500D02*
X12700Y65900D01*
X12700Y139700D01*
X38100Y165100D01*
X38100Y177800D01*
X25400Y190500D01*
X12700Y190500D01*
X32100Y21100D02*
X60380Y18220D01*
X66400Y18220D01*
X247920Y205400D02*
X274400Y205400D01*
X247920Y205400D02*
X236450Y216870D01*
X236450Y166070D02*
X271900Y177500D01*
X274400Y180000D01*
X350600Y205400D02*
X380400Y205400D01*
X407400Y245100D01*
X54700Y452400D02*
X14080Y448590D01*
X54700Y452400D02*
X65200Y462900D01*
X78200Y449900D01*
X258700Y449900D01*
X274400Y434200D02*
X274400Y408600D01*
X274400Y434200D02*
X258700Y449900D01*
X116300Y332400D02*
X14080Y423190D01*
X116300Y332400D02*
X274400Y332400D01*
X116300Y307000D02*
X14080Y397790D01*
X116300Y307000D02*
X274400Y307000D01*
X274400Y154600D02*
X259500Y139700D01*
X203200Y139700D02*
X186800Y123300D01*
X203200Y139700D02*
X259500Y139700D01*
D23*
X186800Y123300D03*
D22*
X183290Y119790D01*
X101150Y119790D01*
X101150Y152850D01*
X12700Y241300D01*
X29701Y82446D02*
X184046Y69746D01*
X243500Y129200D02*
X274400Y129200D01*
X243500Y129200D02*
X184046Y69746D01*
X50800Y90845D02*
X29701Y82446D01*
X50800Y177800D02*
X12700Y215900D01*
X50800Y177800D02*
X50800Y90845D01*
X350600Y357800D02*
X474050Y357800D01*
X488950Y342900D01*
X474050Y332400D02*
X350600Y332400D01*
X474050Y332400D02*
X488950Y317500D01*
X474050Y307000D02*
X350600Y307000D01*
X474050Y307000D02*
X488950Y292100D01*
X426306Y161444D02*
X433926Y114300D01*
D23*
X426306Y161444D03*
D22*
X433926Y114300D02*
X433926Y109444D01*
X425100Y100618D02*
X422560Y98370D01*
X425100Y100618D02*
X433926Y109444D01*
X402900Y105100D02*
X381000Y114300D01*
X402900Y105100D02*
X410560Y106370D01*
D23*
X381000Y114300D03*
D22*
X350600Y154600D02*
X462700Y266700D01*
X488950Y266700D01*
X462700Y241300D02*
X350600Y129200D01*
X462700Y241300D02*
X488950Y241300D01*
X462700Y215900D02*
X350600Y103800D01*
X462700Y215900D02*
X488950Y215900D01*
X33270Y138780D02*
X33270Y110605D01*
X30499Y107834D01*
M02*
