G04 EAGLE Gerber X2 export*
%TF.Part,Single*%
%TF.FileFunction,Other,Solder Mask bottom*%
%TF.FilePolarity,Positive*%
%TF.GenerationSoftware,Autodesk,EAGLE,8.7.1*%
%TF.CreationDate,2018-04-17T03:08:04Z*%
G75*
%MOMM*%
%FSLAX34Y34*%
%LPD*%
%AMOC8*
5,1,8,0,0,1.08239X$1,22.5*%
G01*
%ADD10C,0.000000*%
%ADD11C,1.981200*%
%ADD12P,1.539592X8X22.500000*%
%ADD13P,1.539592X8X292.500000*%
%ADD14C,1.422400*%
%ADD15P,1.539592X8X112.500000*%
%ADD16C,1.409600*%
%ADD17C,2.951600*%
%ADD18P,1.539592X8X110.700000*%
%ADD19P,1.539592X8X202.500000*%
%ADD20C,1.422400*%
%ADD21C,1.609600*%


D10*
X0Y0D02*
X500000Y0D01*
X500000Y500000D01*
X0Y500000D01*
X0Y0D01*
D11*
X12700Y165100D03*
X12700Y190500D03*
X12700Y215900D03*
X12700Y241300D03*
X12700Y266700D03*
X12700Y292100D03*
X12700Y317500D03*
X12700Y342900D03*
X488950Y165100D03*
X488950Y190500D03*
X488950Y215900D03*
X488950Y241300D03*
X488950Y266700D03*
X488950Y292100D03*
X488950Y317500D03*
X488950Y342900D03*
D12*
X98200Y235900D03*
X123600Y235900D03*
D13*
X286770Y46690D03*
X286770Y21290D03*
X378870Y44650D03*
X378870Y19250D03*
D14*
X407400Y245100D03*
D15*
X407400Y295900D03*
D14*
X228400Y75000D03*
D13*
X228400Y24200D03*
D16*
X410560Y90370D03*
X410560Y106370D03*
X410560Y122370D03*
X422560Y98370D03*
X422560Y114370D03*
D17*
X461560Y142870D03*
X461560Y69870D03*
D13*
X32100Y46500D03*
X32100Y21100D03*
D18*
X29701Y82446D03*
X30499Y107834D03*
D13*
X66400Y119820D03*
X66400Y18220D03*
D19*
X134870Y138780D03*
X33270Y138780D03*
D12*
X258700Y449900D03*
X360300Y449900D03*
D13*
X101150Y119790D03*
X101150Y18190D03*
D20*
X267796Y408600D02*
X281004Y408600D01*
X281004Y383200D02*
X267796Y383200D01*
X267796Y357800D02*
X281004Y357800D01*
X281004Y332400D02*
X267796Y332400D01*
X267796Y307000D02*
X281004Y307000D01*
X281004Y281600D02*
X267796Y281600D01*
X267796Y256200D02*
X281004Y256200D01*
X281004Y230800D02*
X267796Y230800D01*
X267796Y205400D02*
X281004Y205400D01*
X281004Y180000D02*
X267796Y180000D01*
X267796Y154600D02*
X281004Y154600D01*
X281004Y129200D02*
X267796Y129200D01*
X267796Y103800D02*
X281004Y103800D01*
X281004Y78400D02*
X267796Y78400D01*
X343996Y78400D02*
X357204Y78400D01*
X357204Y103800D02*
X343996Y103800D01*
X343996Y129200D02*
X357204Y129200D01*
X357204Y154600D02*
X343996Y154600D01*
X343996Y180000D02*
X357204Y180000D01*
X357204Y205400D02*
X343996Y205400D01*
X343996Y230800D02*
X357204Y230800D01*
X357204Y256200D02*
X343996Y256200D01*
X343996Y281600D02*
X357204Y281600D01*
X357204Y307000D02*
X343996Y307000D01*
X343996Y332400D02*
X357204Y332400D01*
X357204Y357800D02*
X343996Y357800D01*
X343996Y383200D02*
X357204Y383200D01*
X357204Y408600D02*
X343996Y408600D01*
D21*
X486620Y24000D03*
X406620Y24000D03*
D16*
X466620Y24000D03*
X446620Y24000D03*
X426620Y24000D03*
D19*
X321400Y39100D03*
X334100Y20050D03*
X346800Y39100D03*
D11*
X65200Y462900D03*
X116000Y462900D03*
X186800Y31000D03*
X136000Y31000D03*
X14080Y473990D03*
X14080Y448590D03*
X14080Y423190D03*
X14080Y397790D03*
X14080Y372390D03*
X236450Y216870D03*
X236450Y191470D03*
X236450Y166070D03*
M02*
