M48
;GenerationSoftware,Autodesk,EAGLE,8.7.1*%
;CreationDate,2018-04-17T03:08:04Z*%
FMAT,2
ICI,OFF
METRIC,TZ,000.000
T6C0.350
T5C0.800
T4C0.813
T3C1.000
T2C1.016
T1C1.900
%
G90
M71
T1
X46156Y14287
X46156Y6987
T2
X23645Y21687
X1408Y37239
X1408Y39779
X1270Y16510
X1270Y19050
X1270Y21590
X1270Y24130
X1270Y26670
X1270Y29210
X1270Y31750
X1270Y34290
X48895Y16510
X48895Y19050
X48895Y21590
X23645Y16607
X48895Y26670
X48895Y29210
X48895Y31750
X48895Y34290
X1408Y42319
X1408Y44859
X1408Y47399
X13600Y3100
X18680Y3100
X11600Y46290
X6520Y46290
X23645Y19147
X48895Y24130
T3
X40662Y2400
X48662Y2400
T4
X10115Y1819
X35060Y10380
X9820Y23590
X12360Y23590
X28677Y4669
X22840Y2420
X3210Y4650
X3210Y2110
X2970Y8245
X3050Y10783
X6640Y11982
X6640Y1822
X13487Y13878
X3327Y13878
X25870Y44990
X36030Y44990
X10115Y11979
X28677Y2129
X27440Y40860
X27440Y38320
X27440Y35780
X27440Y33240
X27440Y30700
X27440Y28160
X27440Y25620
X27440Y23080
X27440Y20540
X27440Y18000
X27440Y15460
X27440Y12920
X27440Y10380
X27440Y7840
X35060Y7840
X37887Y4465
X35060Y12920
X35060Y15460
X35060Y18000
X35060Y20540
X35060Y23080
X35060Y25620
X35060Y28160
X35060Y30700
X35060Y33240
X35060Y35780
X35060Y38320
X35060Y40860
X22840Y7500
X40740Y29590
X37887Y1925
X40740Y24510
X34680Y3910
X32140Y3910
X33410Y2005
T5
X42662Y2400
X44662Y2400
X46662Y2400
X41056Y12237
X41056Y10637
X41056Y9037
X42256Y11437
X42256Y9837
T6
X38100Y11430
X42631Y16144
X18680Y12330
X44069Y5461
X41105Y4465
M30